<svg width="21" height="21" viewBox="0 0 21 21" fill="none" xmlns="http://www.w3.org/2000/svg">
<g style="mix-blend-mode:multiply">
<ellipse cx="10.5" cy="10.5" rx="6.65196" ry="6.65196" fill="#87C12F"/>
<g style="mix-blend-mode:multiply">
<path d="M15.814 11.9047C14.854 11.9047 14.0758 10.4999 14.0758 10.4999C14.0758 10.4999 14.854 9.09515 15.814 9.09515C16.774 9.09515 20.3334 10.4999 20.3334 10.4999C20.3334 10.4999 16.774 11.9047 15.814 11.9047Z" fill="#87C12F"/>
</g>
<g style="mix-blend-mode:multiply">
<path d="M13.2642 15.2508C12.5854 14.572 13.0284 13.0284 13.0284 13.0284C13.0284 13.0284 14.572 12.5854 15.2509 13.2642C15.9297 13.943 17.4532 17.4532 17.4532 17.4532C17.4532 17.4532 13.943 15.9296 13.2642 15.2508Z" fill="#87C12F"/>
</g>
<g style="mix-blend-mode:multiply">
<path d="M9.09526 15.814C9.09526 14.854 10.5 14.0757 10.5 14.0757C10.5 14.0757 11.9048 14.854 11.9048 15.814C11.9048 16.7739 10.5 20.3333 10.5 20.3333C10.5 20.3333 9.09526 16.7739 9.09526 15.814Z" fill="#87C12F"/>
</g>
<g style="mix-blend-mode:multiply">
<path d="M5.74914 13.2643C6.42795 12.5854 7.97156 13.0285 7.97156 13.0285C7.97156 13.0285 8.41459 14.5721 7.73577 15.2509C7.05695 15.9297 3.54678 17.4532 3.54678 17.4532C3.54678 17.4532 5.07032 13.9431 5.74914 13.2643Z" fill="#87C12F"/>
</g>
<g style="mix-blend-mode:multiply">
<path d="M5.18605 9.09523C6.14604 9.09523 6.92426 10.5 6.92426 10.5C6.92426 10.5 6.14604 11.9048 5.18605 11.9048C4.22606 11.9048 0.666687 10.5 0.666687 10.5C0.666687 10.5 4.22606 9.09523 5.18605 9.09523Z" fill="#87C12F"/>
</g>
<g style="mix-blend-mode:multiply">
<path d="M7.73577 5.74917C8.41459 6.42798 7.97156 7.97159 7.97156 7.97159C7.97156 7.97159 6.42795 8.41462 5.74914 7.7358C5.07032 7.05698 3.54678 3.54681 3.54678 3.54681C3.54678 3.54681 7.05695 5.07035 7.73577 5.74917Z" fill="#87C12F"/>
</g>
<g style="mix-blend-mode:multiply">
<path d="M11.9048 5.18608C11.9048 6.14607 10.5 6.92429 10.5 6.92429C10.5 6.92429 9.09528 6.14607 9.09528 5.18608C9.09528 4.22609 10.5 0.666718 10.5 0.666718C10.5 0.666718 11.9048 4.22609 11.9048 5.18608Z" fill="#87C12F"/>
</g>
<g style="mix-blend-mode:multiply">
<path d="M15.2509 7.73571C14.572 8.41452 13.0284 7.9715 13.0284 7.9715C13.0284 7.9715 12.5854 6.42789 13.2642 5.74908C13.943 5.07026 17.4532 3.54672 17.4532 3.54672C17.4532 3.54672 15.9297 7.05689 15.2509 7.73571Z" fill="#87C12F"/>
</g>
</g>
</svg>
